<?xml version="1.0" standalone="no"?>
<!DOCTYPE svg PUBLIC "-//W3C//DTD SVG 20010904//EN"
 "http://www.w3.org/TR/2001/REC-SVG-20010904/DTD/svg10.dtd">
<svg version="1.0" xmlns="http://www.w3.org/2000/svg"
 width="1080.000000pt" height="1080.000000pt" viewBox="0 0 1080.000000 1080.000000"
 preserveAspectRatio="xMidYMid meet">
<metadata>
Created by potrace 1.16, written by Peter Selinger 2001-2019
</metadata>
<g transform="translate(0.000000,1080.000000) scale(0.100000,-0.100000)"
fill="#000000" stroke="none">
<path d="M5040 10790 c0 -6 -65 -10 -175 -10 -135 0 -174 -3 -172 -12 1 -10
-26 -14 -105 -16 -83 -2 -108 -6 -108 -16 0 -21 -23 -25 -100 -19 -67 6 -71 5
-77 -16 -5 -19 -12 -21 -74 -21 -55 0 -69 -3 -69 -15 0 -12 -14 -15 -70 -15
-56 0 -70 -3 -70 -15 0 -16 -5 -18 -66 -15 -35 1 -42 -2 -47 -21 -5 -20 -10
-21 -74 -15 -37 3 -62 3 -55 0 6 -3 12 -12 12 -20 0 -10 -13 -14 -45 -14 -33
0 -45 -4 -45 -15 0 -11 -12 -15 -45 -15 -39 0 -45 -3 -45 -21 0 -20 -4 -21
-45 -15 -41 7 -45 5 -45 -13 0 -18 -6 -21 -45 -21 -33 0 -45 -4 -45 -15 0 -11
-12 -15 -44 -15 -35 0 -45 -4 -49 -20 -4 -15 -14 -20 -41 -20 -25 0 -36 -4
-36 -15 0 -10 -11 -15 -35 -15 -24 0 -35 -5 -35 -15 0 -10 -11 -15 -35 -15
-24 0 -35 -5 -35 -15 0 -10 -11 -15 -35 -15 -28 0 -35 -4 -35 -20 0 -16 -7
-20 -35 -20 -24 0 -35 -5 -35 -15 0 -10 -10 -15 -30 -15 -20 0 -30 -5 -30 -15
0 -10 -11 -15 -35 -15 -29 0 -35 -4 -35 -21 0 -19 -4 -21 -31 -15 -25 5 -32 2
-36 -14 -3 -11 -12 -20 -19 -20 -8 0 -17 -7 -20 -15 -4 -9 -19 -15 -35 -15
-23 0 -29 -5 -29 -21 0 -18 -4 -20 -30 -14 -26 6 -30 4 -30 -14 0 -14 -6 -21
-20 -21 -11 0 -20 -7 -20 -15 0 -10 -10 -15 -29 -15 -21 0 -30 -6 -34 -21 -4
-16 -11 -19 -27 -14 -16 5 -23 2 -27 -14 -3 -12 -13 -21 -24 -21 -11 0 -19 -7
-19 -15 0 -10 -11 -15 -35 -15 -23 0 -35 -5 -35 -14 0 -8 -7 -16 -15 -20 -8
-3 -15 -12 -15 -21 0 -8 -9 -15 -20 -15 -11 0 -20 -7 -20 -15 0 -10 -10 -15
-30 -15 -16 0 -30 -4 -30 -9 0 -14 -45 -61 -59 -61 -6 0 -11 -7 -11 -15 0 -10
-10 -15 -30 -15 -19 0 -30 -5 -30 -14 0 -7 -9 -16 -20 -19 -11 -3 -20 -12 -20
-21 0 -9 -7 -16 -15 -16 -8 0 -15 -7 -15 -15 0 -10 -11 -15 -35 -15 -24 0 -35
-5 -35 -15 0 -8 -7 -15 -15 -15 -8 0 -15 -7 -15 -15 0 -9 -7 -18 -15 -21 -8
-4 -15 -12 -15 -20 0 -8 -7 -14 -15 -14 -9 0 -18 -7 -21 -15 -4 -8 -12 -15
-20 -15 -8 0 -14 -6 -14 -14 0 -8 -7 -16 -15 -20 -8 -3 -15 -12 -15 -21 0 -8
-7 -15 -15 -15 -8 0 -15 -7 -15 -15 0 -8 -7 -15 -15 -15 -9 0 -18 -7 -21 -15
-4 -8 -12 -15 -20 -15 -8 0 -14 -9 -14 -20 0 -13 -7 -20 -20 -20 -11 0 -20 -7
-20 -15 0 -13 -26 -21 -53 -16 -5 1 -6 -3 -2 -9 3 -6 11 -8 16 -5 5 4 9 2 9
-3 0 -5 -9 -12 -21 -15 -12 -3 -18 -10 -14 -16 3 -6 -1 -11 -9 -11 -9 0 -16
-9 -16 -20 0 -11 -7 -20 -15 -20 -9 0 -18 -7 -21 -15 -4 -8 -12 -15 -20 -15
-8 0 -14 -9 -14 -20 0 -11 -7 -20 -15 -20 -8 0 -15 -7 -15 -15 0 -8 -7 -15
-15 -15 -8 0 -15 -7 -15 -15 0 -8 -5 -15 -11 -15 -15 0 -59 -42 -59 -57 0 -7
-7 -13 -15 -13 -8 0 -15 -7 -15 -15 0 -8 -9 -15 -20 -15 -11 0 -20 -7 -20 -15
0 -8 -7 -15 -15 -15 -10 0 -15 -11 -15 -35 0 -24 -5 -35 -15 -35 -8 0 -15 -7
-15 -15 0 -8 -7 -15 -16 -15 -9 0 -18 -9 -21 -20 -3 -11 -12 -20 -19 -20 -14
0 -18 -11 -15 -42 1 -10 -4 -18 -13 -18 -9 0 -16 -5 -16 -11 0 -14 -47 -59
-61 -59 -5 0 -9 -13 -9 -30 0 -20 -5 -30 -15 -30 -8 0 -15 -9 -15 -20 0 -11
-7 -20 -15 -20 -8 0 -15 -7 -15 -15 0 -8 -9 -15 -20 -15 -15 0 -20 -7 -20 -29
0 -16 -6 -31 -15 -35 -8 -3 -15 -15 -15 -26 0 -13 -7 -20 -20 -20 -17 0 -19
-4 -14 -26 5 -20 2 -26 -15 -31 -15 -4 -21 -13 -21 -34 0 -19 -5 -29 -15 -29
-8 0 -15 -8 -15 -19 0 -10 -8 -21 -19 -24 -14 -3 -17 -11 -14 -29 4 -19 0 -26
-16 -31 -15 -3 -21 -13 -21 -31 0 -16 -6 -26 -15 -26 -8 0 -15 -9 -15 -19 0
-10 -7 -21 -15 -25 -9 -3 -15 -18 -15 -36 0 -24 -4 -30 -21 -30 -19 0 -21 -4
-15 -31 5 -25 2 -32 -14 -36 -14 -4 -20 -14 -20 -34 0 -19 -5 -29 -15 -29 -10
0 -15 -11 -15 -35 0 -29 -4 -35 -21 -35 -18 0 -20 -4 -14 -31 6 -25 4 -31 -14
-36 -16 -4 -21 -13 -21 -39 0 -24 -5 -34 -15 -34 -11 0 -15 -11 -15 -35 0 -28
-4 -35 -17 -33 -14 3 -17 -4 -14 -39 2 -38 0 -43 -18 -43 -18 0 -21 -6 -21
-39 0 -25 -5 -41 -15 -45 -10 -3 -15 -19 -15 -46 0 -29 -4 -40 -15 -40 -11 0
-15 -12 -15 -50 0 -43 -3 -50 -20 -50 -17 0 -20 -7 -20 -45 0 -33 -4 -45 -15
-45 -11 0 -15 -12 -15 -45 0 -33 -4 -45 -15 -45 -12 0 -15 -13 -15 -55 0 -49
-2 -55 -21 -55 -20 0 -21 -4 -15 -51 6 -46 5 -51 -14 -56 -18 -5 -20 -13 -20
-74 0 -55 -3 -69 -15 -69 -12 0 -15 -15 -15 -75 0 -57 -3 -75 -14 -75 -21 0
-25 -22 -19 -99 6 -68 5 -71 -16 -71 -20 0 -21 -4 -21 -110 0 -91 -3 -110 -15
-110 -13 0 -15 -25 -15 -165 0 -140 -2 -165 -15 -165 -13 0 -15 -47 -15 -365
0 -287 3 -364 13 -363 9 2 13 -38 15 -169 2 -145 5 -173 17 -173 12 0 15 -20
15 -109 0 -97 2 -109 18 -107 15 1 17 -9 17 -82 0 -68 3 -86 17 -96 14 -10 18
-28 18 -80 0 -52 3 -66 15 -66 12 0 15 -14 15 -64 0 -56 2 -64 21 -69 19 -5
20 -10 14 -61 -7 -53 -6 -56 14 -56 19 0 21 -6 21 -55 0 -42 3 -55 15 -55 11
0 15 -12 15 -49 0 -39 4 -50 18 -53 15 -4 17 -13 14 -42 -4 -31 -1 -36 17 -36
18 0 21 -6 21 -45 0 -33 4 -45 15 -45 11 0 15 -12 15 -45 0 -31 5 -47 15 -51
10 -4 15 -20 15 -50 0 -38 3 -44 21 -44 19 0 21 -4 16 -35 -5 -30 -3 -35 14
-35 15 0 19 -7 19 -35 0 -24 5 -35 15 -35 10 0 15 -11 15 -35 0 -29 4 -35 21
-35 18 0 20 -4 14 -31 -6 -25 -4 -31 14 -36 15 -4 21 -13 21 -34 0 -19 5 -29
15 -29 10 0 15 -11 15 -35 0 -24 5 -35 15 -35 10 0 15 -10 15 -30 0 -23 4 -30
20 -30 16 0 20 -7 20 -35 0 -24 5 -35 15 -35 10 0 15 -10 15 -30 0 -20 5 -30
15 -30 8 0 15 -7 15 -16 0 -9 9 -18 20 -21 14 -4 20 -14 20 -34 0 -19 5 -29
15 -29 10 0 15 -11 15 -35 0 -26 3 -33 15 -29 10 4 15 0 15 -14 0 -11 7 -22
15 -26 8 -3 15 -17 15 -32 0 -17 6 -28 20 -31 14 -4 20 -14 20 -34 0 -19 5
-29 15 -29 8 0 15 -7 15 -16 0 -9 9 -18 20 -21 11 -3 20 -12 20 -19 0 -8 7
-14 15 -14 10 0 15 -10 15 -29 0 -16 6 -31 15 -35 8 -3 15 -12 15 -21 0 -8 9
-15 20 -15 13 0 20 -7 20 -20 0 -12 7 -20 16 -20 13 0 15 -7 11 -30 -6 -25 -3
-30 13 -30 11 0 20 -7 20 -15 0 -8 7 -15 15 -15 8 0 15 -7 15 -16 0 -9 8 -18
18 -21 14 -3 17 -12 14 -34 -4 -24 -1 -29 17 -29 12 0 21 -6 21 -15 0 -8 7
-15 15 -15 8 0 15 -7 15 -16 0 -9 9 -18 20 -21 11 -3 20 -12 20 -19 0 -8 7
-14 15 -14 8 0 15 -7 15 -15 0 -8 7 -15 15 -15 8 0 15 -9 15 -20 0 -11 7 -20
15 -20 8 0 15 -7 15 -15 0 -9 9 -15 21 -15 16 0 20 -5 17 -25 -2 -17 6 -33 29
-54 18 -17 33 -35 33 -40 0 -6 9 -11 20 -11 11 0 20 -7 20 -15 0 -9 7 -18 15
-21 8 -4 15 -12 15 -20 0 -8 7 -14 15 -14 8 0 15 -7 15 -15 0 -8 9 -15 20 -15
11 0 20 -7 20 -15 0 -8 7 -15 15 -15 8 0 15 -9 15 -20 0 -11 7 -20 15 -20 8 0
15 -7 15 -15 0 -10 11 -15 35 -15 24 0 35 -5 35 -15 0 -8 7 -15 15 -15 8 0 15
-9 15 -20 0 -11 7 -20 15 -20 9 0 18 -7 21 -15 4 -8 12 -15 20 -15 8 0 14 -7
14 -15 0 -8 7 -15 15 -15 8 0 15 -4 15 -10 0 -12 48 -60 60 -60 6 0 10 -9 10
-20 0 -16 5 -19 30 -13 23 4 30 2 30 -10 0 -8 9 -17 20 -20 11 -3 20 -12 20
-21 0 -9 7 -16 15 -16 8 0 15 -7 15 -15 0 -10 10 -15 30 -15 20 0 30 -5 30
-15 0 -8 9 -15 20 -15 13 0 20 -7 20 -20 0 -11 7 -20 15 -20 8 0 15 -7 15 -15
0 -10 10 -15 30 -15 20 0 30 -5 30 -15 0 -8 9 -15 20 -15 11 0 20 -7 20 -15 0
-9 7 -18 15 -21 8 -4 15 -12 15 -20 0 -9 12 -14 35 -14 24 0 35 -5 35 -15 0
-8 9 -15 20 -15 11 0 28 -9 37 -20 10 -11 23 -20 30 -20 7 0 13 -7 13 -15 0
-10 10 -15 30 -15 20 0 30 -5 30 -15 0 -10 10 -15 26 -15 21 0 25 -4 21 -19
-4 -16 0 -18 25 -14 24 4 31 0 35 -16 4 -15 13 -21 34 -21 19 0 29 -5 29 -15
0 -9 9 -15 24 -15 15 0 26 -7 29 -19 3 -15 11 -18 26 -14 17 4 24 0 28 -16 4
-17 13 -21 44 -21 28 0 39 -4 39 -15 0 -10 11 -15 35 -15 24 0 35 -5 35 -15 0
-10 11 -15 35 -15 28 0 35 -4 35 -20 0 -16 7 -20 30 -20 20 0 30 -5 30 -15 0
-10 11 -15 35 -15 24 0 35 -5 35 -15 0 -10 11 -15 35 -15 28 0 35 -4 35 -20 0
-17 7 -20 45 -20 33 0 45 -4 45 -15 0 -11 12 -15 45 -15 33 0 45 -4 45 -15 0
-11 12 -15 45 -15 39 0 45 -3 45 -21 0 -20 4 -21 45 -17 39 5 45 3 45 -13 0
-16 8 -19 50 -19 38 0 50 -4 50 -15 0 -11 12 -15 50 -15 44 0 50 -2 50 -21 0
-20 4 -21 51 -15 46 6 51 5 56 -14 5 -17 13 -20 69 -20 50 0 64 -3 64 -15 0
-12 15 -15 75 -15 58 0 75 -3 75 -14 0 -8 -6 -17 -12 -20 -7 -3 30 -4 82 -3
85 2 95 0 94 -16 -2 -15 8 -17 91 -16 94 1 120 -4 110 -22 -4 -5 61 -10 162
-10 92 -1 152 -5 133 -8 -81 -15 84 -22 516 -20 374 1 444 3 444 15 0 11 25
14 130 14 109 0 130 2 130 15 0 16 18 18 137 15 69 -2 71 -1 66 20 -6 22 -5
22 103 17 60 -4 101 -4 92 -1 -10 3 -18 12 -18 20 0 11 16 14 70 14 56 0 70 3
70 15 0 12 13 15 60 15 50 0 61 3 70 21 10 18 17 20 61 14 45 -6 49 -5 49 14
0 19 6 21 60 21 47 0 60 3 60 15 0 11 11 15 40 15 28 0 40 4 40 14 0 19 24 27
60 19 26 -5 30 -3 30 16 0 19 6 21 50 21 38 0 50 4 50 15 0 11 12 15 45 15 33
0 45 4 45 15 0 11 11 15 40 15 33 0 40 3 40 20 0 16 7 20 35 20 24 0 35 5 35
15 0 11 11 15 40 15 29 0 40 4 40 15 0 10 10 15 31 15 23 0 32 5 36 21 5 17
12 20 36 16 23 -3 31 0 35 15 3 12 14 18 33 18 19 0 29 5 29 15 0 10 10 15 34
15 26 0 35 5 39 21 5 18 11 20 36 14 27 -6 31 -4 31 14 0 15 6 21 24 21 13 0
26 7 30 15 3 8 14 15 25 15 10 0 21 8 24 19 3 14 11 17 31 14 22 -5 28 -1 33
16 3 12 13 21 24 21 11 0 19 7 19 15 0 10 10 15 30 15 20 0 30 5 30 15 0 10
10 15 30 15 23 0 30 4 30 20 0 13 7 20 20 20 11 0 20 7 20 15 0 10 10 15 30
15 19 0 30 5 30 14 0 7 9 16 20 19 11 3 20 13 20 22 0 13 6 15 30 10 26 -6 30
-4 30 14 0 12 6 21 15 21 8 0 15 7 15 15 0 8 9 15 20 15 13 0 20 7 20 18 0 15
6 18 30 14 25 -4 30 -1 30 17 0 14 6 21 20 21 11 0 20 7 20 15 0 8 7 15 15 15
8 0 15 7 15 15 0 10 10 15 31 15 22 0 32 5 36 20 3 11 12 20 19 20 8 0 14 7
14 15 0 8 7 15 15 15 8 0 15 6 15 14 0 8 9 18 20 21 11 3 20 13 20 21 0 8 7
14 15 14 8 0 15 7 15 15 0 8 9 15 20 15 11 0 20 7 20 15 0 10 10 15 30 15 20
0 30 5 30 15 0 8 7 15 15 15 8 0 15 9 15 20 0 11 7 20 15 20 8 0 15 6 15 14 0
7 9 16 20 19 11 3 20 12 20 21 0 9 7 16 15 16 8 0 15 7 15 15 0 8 7 15 15 15
8 0 15 6 15 14 0 7 9 16 20 19 11 3 20 12 20 21 0 9 7 16 15 16 8 0 15 7 15
15 0 8 7 15 15 15 8 0 15 7 15 15 0 8 6 15 14 15 8 0 16 7 20 15 3 8 12 15 21
15 8 0 15 9 15 20 0 13 7 20 20 20 11 0 20 6 20 14 0 8 7 16 15 20 8 3 15 12
15 20 0 7 7 16 15 20 8 3 15 17 15 31 0 16 6 25 15 25 8 0 15 7 15 15 0 8 7
15 15 15 8 0 15 7 15 16 0 9 9 18 20 21 11 3 20 12 20 19 0 8 7 14 15 14 8 0
15 7 15 15 0 8 6 15 14 15 16 0 29 27 20 41 -6 11 40 59 57 59 5 0 9 9 9 19 0
14 5 18 20 14 17 -5 18 -1 13 31 -4 29 -2 36 11 36 9 0 16 6 16 14 0 7 9 16
20 19 11 3 20 12 20 21 0 9 7 16 15 16 10 0 15 10 15 30 0 20 5 30 15 30 8 0
15 7 15 16 0 9 9 18 20 21 14 4 20 14 20 34 0 19 5 29 15 29 8 0 15 8 15 19 0
10 9 21 20 24 17 4 19 11 14 31 -5 22 -3 26 15 26 17 0 21 6 21 30 0 20 5 30
15 30 9 0 15 9 15 24 0 15 7 26 19 29 14 3 17 11 14 31 -4 21 -2 26 16 26 17
0 21 6 21 30 0 20 5 30 15 30 8 0 15 9 15 20 0 11 7 20 15 20 10 0 15 11 15
35 0 28 4 35 20 35 16 0 20 7 20 35 0 24 5 35 15 35 10 0 15 11 15 35 0 24 5
35 15 35 10 0 15 10 15 30 0 23 4 30 20 30 16 0 19 5 13 31 -5 25 -2 31 16 36
17 4 21 13 21 44 0 28 4 39 15 39 11 0 15 11 15 36 0 32 3 36 20 31 20 -5 21
-2 14 39 -6 40 -4 44 15 44 19 0 21 6 21 51 0 41 3 50 15 45 12 -4 15 4 15 44
0 38 4 50 15 50 11 0 15 12 15 44 0 36 4 45 21 49 15 4 20 13 19 34 -4 50 0
63 15 63 11 0 15 12 15 50 0 38 4 50 15 50 12 0 15 13 15 55 0 49 2 55 21 55
20 0 21 3 15 61 -7 56 -6 61 13 66 19 5 21 13 21 79 0 59 3 74 15 74 12 0 15
16 15 85 0 66 3 85 14 85 20 0 26 35 19 122 -6 78 -4 84 30 79 4 0 7 71 7 158
0 142 8 197 23 159 3 -7 6 186 6 430 1 349 -2 441 -11 440 -10 -2 -14 35 -16
153 -2 150 -3 157 -24 162 -20 6 -21 10 -15 79 7 82 1 118 -19 118 -11 0 -14
19 -14 85 0 69 -3 85 -15 85 -12 0 -15 14 -15 70 0 53 -3 70 -14 70 -21 0 -27
26 -20 85 6 51 6 54 -15 48 -20 -5 -21 -2 -21 56 0 48 -3 61 -15 61 -12 0 -15
13 -15 55 0 42 -3 55 -15 55 -11 0 -15 12 -15 45 0 38 -3 45 -20 45 -17 0 -20
7 -20 45 0 33 -4 45 -15 45 -11 0 -15 12 -15 45 0 33 -4 45 -15 45 -11 0 -15
12 -15 45 0 39 -3 45 -21 45 -20 0 -21 4 -17 45 5 39 3 45 -13 45 -15 0 -19 8
-19 40 0 29 -4 40 -15 40 -10 0 -15 10 -15 29 0 20 -6 30 -20 34 -16 4 -19 11
-14 36 6 27 4 31 -15 31 -17 0 -21 6 -21 35 0 24 -5 35 -15 35 -10 0 -15 10
-15 30 0 20 -5 30 -15 30 -10 0 -15 11 -15 35 0 28 -4 35 -20 35 -16 0 -20 7
-20 35 0 24 -5 35 -15 35 -10 0 -15 10 -15 30 0 20 -5 30 -15 30 -10 0 -15 10
-15 30 0 23 -4 30 -20 30 -13 0 -20 7 -20 20 0 11 -7 20 -15 20 -10 0 -15 10
-15 30 0 20 -5 30 -15 30 -10 0 -15 10 -15 29 0 21 -6 32 -20 36 -11 3 -20 15
-20 26 0 10 -7 19 -15 19 -10 0 -15 10 -15 30 0 20 -5 30 -15 30 -10 0 -15 10
-15 30 0 19 -5 30 -14 30 -7 0 -16 9 -19 20 -3 11 -12 20 -21 20 -9 0 -16 7
-16 15 0 8 -7 15 -15 15 -10 0 -15 11 -15 35 0 24 -5 35 -15 35 -8 0 -15 7
-15 15 0 8 -9 15 -20 15 -13 0 -20 7 -20 20 0 11 -7 20 -15 20 -10 0 -15 10
-15 30 0 20 -5 30 -15 30 -8 0 -15 7 -15 15 0 8 -7 15 -16 15 -9 0 -18 9 -21
20 -3 11 -12 20 -19 20 -9 0 -14 11 -14 30 0 19 -5 30 -14 30 -7 0 -16 9 -19
20 -3 11 -12 20 -21 20 -9 0 -16 7 -16 15 0 8 -7 15 -15 15 -8 0 -15 7 -15 15
0 8 -7 15 -15 15 -8 0 -15 6 -15 14 0 8 -9 18 -20 21 -11 3 -20 13 -20 21 0 8
-7 14 -15 14 -8 0 -15 7 -15 15 0 8 -7 15 -15 15 -8 0 -15 9 -15 20 0 11 -7
20 -15 20 -10 0 -15 10 -15 29 0 21 -6 30 -21 34 -15 4 -20 11 -16 21 5 11 0
16 -13 16 -11 0 -20 7 -20 15 0 8 -7 15 -15 15 -8 0 -15 7 -15 15 0 8 -9 15
-20 15 -11 0 -20 7 -20 15 0 9 -7 18 -15 21 -8 4 -15 12 -15 20 0 8 -6 14 -14
14 -7 0 -19 7 -26 15 -7 8 -23 15 -36 15 -15 0 -24 6 -24 15 0 8 -6 15 -14 15
-7 0 -16 9 -19 20 -3 11 -12 20 -21 20 -9 0 -16 7 -16 15 0 8 -7 15 -15 15 -8
0 -15 7 -15 15 0 8 -7 15 -15 15 -8 0 -15 7 -15 15 0 8 -7 15 -16 15 -9 0 -18
9 -21 20 -3 11 -12 20 -19 20 -8 0 -14 7 -14 15 0 8 -7 15 -16 15 -9 0 -18 9
-21 21 -5 16 -11 19 -30 14 -19 -4 -26 -1 -30 15 -3 11 -12 20 -19 20 -8 0
-14 7 -14 15 0 8 -8 15 -19 15 -10 0 -21 8 -24 19 -3 14 -11 17 -31 14 -21 -4
-26 -2 -26 16 0 11 -6 21 -14 21 -8 0 -16 7 -20 15 -3 8 -13 15 -22 15 -11 0
-15 6 -12 18 4 15 0 17 -29 14 -19 -3 -33 0 -33 6 0 20 -51 62 -75 62 -16 0
-25 6 -25 15 0 8 -9 15 -20 15 -14 0 -20 7 -20 21 0 19 -4 21 -30 16 -25 -6
-30 -3 -30 13 0 13 -7 20 -20 20 -11 0 -23 7 -26 15 -4 8 -17 15 -30 15 -18 0
-24 6 -24 21 0 18 -4 21 -29 16 -23 -5 -30 -2 -34 13 -3 12 -14 20 -26 20 -12
0 -24 7 -27 15 -4 8 -17 15 -30 15 -18 0 -24 6 -24 21 0 18 -4 20 -30 14 -26
-6 -30 -4 -30 14 0 17 -6 21 -35 21 -24 0 -35 5 -35 15 0 10 -10 15 -30 15
-20 0 -30 5 -30 15 0 10 -11 15 -35 15 -29 0 -35 4 -35 21 0 18 -5 21 -31 17
-25 -4 -33 -1 -37 14 -3 13 -14 18 -38 18 -22 0 -33 4 -32 13 2 7 -10 13 -28
15 -22 2 -34 9 -37 23 -4 14 -13 19 -29 18 -42 -4 -58 1 -58 16 0 11 -11 15
-40 15 -29 0 -40 4 -40 15 0 11 -12 15 -50 15 -43 0 -50 3 -50 20 0 18 -5 19
-45 13 -41 -5 -45 -4 -45 16 0 18 -6 21 -45 21 -33 0 -45 4 -45 15 0 11 -12
15 -46 15 -42 0 -46 2 -41 21 5 20 3 20 -52 14 -53 -6 -59 -5 -64 14 -4 18
-13 21 -56 21 -39 0 -51 4 -51 15 0 12 -14 15 -70 15 -56 0 -70 3 -70 15 0 12
-15 15 -74 15 -67 0 -74 2 -79 21 -6 21 -10 22 -79 17 -81 -6 -98 -3 -98 17 0
11 -24 15 -107 17 -80 2 -107 6 -106 16 2 9 -37 12 -172 12 -110 0 -175 4
-175 10 0 6 -122 10 -345 10 -223 0 -345 -4 -345 -10z m633 -136 c55 -5 77
-11 77 -20 0 -11 33 -14 165 -14 140 0 165 -2 165 -15 0 -12 17 -15 96 -15 89
0 96 -2 101 -21 5 -19 12 -21 77 -19 92 3 96 3 96 -15 0 -12 15 -15 75 -15 60
0 75 -3 75 -15 0 -12 14 -15 65 -15 36 0 64 -3 64 -7 -5 -31 2 -34 55 -28 48
6 54 5 59 -14 4 -18 13 -21 56 -21 39 0 51 -4 51 -15 0 -11 12 -15 44 -15 35
0 45 -4 49 -19 4 -16 11 -19 46 -14 40 5 47 0 42 -29 0 -5 19 -8 44 -8 33 0
45 -4 45 -15 0 -11 12 -15 45 -15 33 0 45 -4 45 -15 0 -11 12 -15 45 -15 38 0
45 -3 45 -20 0 -16 7 -20 35 -20 24 0 35 -5 35 -15 0 -10 11 -15 35 -15 24 0
35 -5 35 -15 0 -10 11 -15 35 -15 28 0 35 -4 35 -20 0 -16 5 -19 30 -13 26 5
30 3 30 -16 0 -17 6 -21 35 -21 24 0 35 -5 35 -15 0 -10 10 -15 34 -15 25 0
35 -5 39 -19 3 -14 11 -17 31 -14 21 4 26 2 26 -16 0 -17 6 -21 30 -21 20 0
30 -5 30 -15 0 -10 10 -15 31 -15 25 0 30 -3 27 -18 -4 -15 -1 -18 18 -14 19
3 24 0 24 -18 0 -19 4 -22 31 -18 24 4 33 1 36 -13 3 -10 15 -19 27 -21 11 -2
20 -9 18 -16 -1 -7 10 -12 28 -12 24 0 30 -4 30 -21 0 -19 4 -21 30 -15 25 5
30 2 30 -14 0 -11 7 -20 15 -20 9 0 18 -7 21 -15 4 -9 19 -15 35 -15 19 0 29
-5 29 -15 0 -8 7 -15 15 -15 8 0 15 -7 15 -16 0 -9 9 -18 20 -21 11 -3 20 -12
20 -19 0 -9 11 -14 30 -14 20 0 30 -5 30 -15 0 -8 5 -15 11 -15 14 0 59 -47
59 -61 0 -5 14 -9 30 -9 20 0 30 -5 30 -15 0 -8 9 -15 20 -15 11 0 20 -7 20
-15 0 -8 7 -15 15 -15 8 0 15 -9 15 -20 0 -11 7 -20 15 -20 8 0 15 -7 15 -15
0 -8 7 -15 15 -15 14 0 19 -12 16 -32 0 -5 10 -8 23 -8 13 0 29 -7 36 -15 7
-8 18 -15 25 -15 7 0 15 -7 19 -15 3 -8 12 -15 21 -15 8 0 15 -7 15 -15 0 -8
7 -15 15 -15 8 0 15 -7 15 -15 0 -8 6 -15 14 -15 7 0 16 -9 19 -20 3 -11 12
-20 21 -20 9 0 16 -7 16 -15 0 -8 7 -15 15 -15 8 0 15 -7 15 -15 0 -8 7 -15
15 -15 8 0 15 -9 15 -20 0 -11 6 -20 14 -20 8 0 16 -7 20 -15 3 -8 12 -15 21
-15 8 0 15 -7 15 -15 0 -8 7 -15 15 -15 8 0 15 -6 15 -12 0 -16 44 -58 59 -58
6 0 11 -7 11 -15 0 -8 6 -15 14 -15 7 0 16 -14 20 -31 3 -17 10 -28 16 -24 5
3 10 -3 10 -14 0 -24 33 -61 55 -61 8 0 15 -9 15 -20 0 -11 7 -20 15 -20 8 0
15 -7 15 -15 0 -8 7 -15 15 -15 9 0 18 -7 21 -15 4 -8 13 -15 21 -15 11 0 14
-9 11 -35 -3 -29 -1 -35 14 -35 10 0 18 -7 18 -15 0 -8 6 -15 14 -15 7 0 16
-9 19 -20 3 -11 13 -20 22 -20 12 0 15 -7 11 -30 -3 -25 -1 -30 15 -30 10 0
19 -7 19 -15 0 -8 6 -15 14 -15 7 0 16 -9 19 -20 3 -11 12 -20 21 -20 12 0 14
-7 10 -30 -6 -26 -4 -30 15 -30 12 0 21 -6 21 -15 0 -8 7 -15 15 -15 10 0 15
-11 15 -35 0 -24 5 -35 15 -35 8 0 15 -9 15 -20 0 -14 7 -20 21 -20 13 0 20
-6 18 -17 -3 -33 1 -43 16 -43 10 0 15 -10 15 -30 0 -20 5 -30 15 -30 8 0 15
-9 15 -20 0 -14 7 -20 21 -20 18 0 20 -4 14 -30 -6 -26 -4 -30 14 -30 17 0 21
-6 21 -30 0 -20 5 -30 15 -30 8 0 15 -9 15 -20 0 -11 7 -23 15 -26 9 -4 15
-19 15 -41 0 -26 5 -36 20 -40 15 -4 20 -14 20 -39 0 -24 5 -34 15 -34 10 0
15 -10 15 -30 0 -20 5 -30 15 -30 10 0 15 -10 15 -31 0 -23 5 -32 21 -36 17
-5 20 -12 17 -44 -2 -25 0 -35 6 -29 19 19 26 10 26 -30 0 -29 4 -40 15 -40
10 0 15 -10 15 -34 0 -26 5 -35 21 -39 19 -5 21 -10 15 -51 -7 -42 -5 -46 13
-46 18 0 21 -6 21 -45 0 -33 4 -45 15 -45 11 0 15 -12 15 -45 0 -32 4 -45 14
-45 19 0 24 -18 18 -57 -4 -29 -2 -33 17 -33 19 0 21 -6 21 -50 0 -38 4 -50
15 -50 12 0 15 -13 15 -55 0 -40 4 -57 15 -61 11 -5 15 -22 15 -65 0 -53 2
-59 21 -59 20 0 21 -3 16 -92 -3 -51 -4 -85 -1 -75 3 9 12 17 20 17 11 0 14
-17 14 -80 0 -64 3 -80 15 -80 12 0 15 -17 15 -95 0 -84 2 -95 20 -105 20 -10
20 -17 14 -146 -7 -133 -7 -135 15 -141 l21 -5 -2 -452 c-3 -393 -5 -451 -18
-451 -13 0 -15 -22 -15 -135 -1 -160 -1 -160 -20 -160 -12 0 -15 -17 -15 -95
0 -78 -3 -95 -15 -95 -12 0 -15 -16 -15 -80 0 -62 -3 -80 -14 -80 -8 0 -17 6
-20 13 -3 6 -2 -27 1 -76 6 -84 5 -87 -16 -87 -19 0 -21 -5 -21 -60 0 -47 -3
-60 -15 -60 -12 0 -15 -13 -15 -60 0 -47 -3 -60 -15 -60 -11 0 -15 -12 -15
-50 0 -44 -3 -50 -21 -50 -16 0 -20 -6 -19 -27 4 -50 0 -63 -15 -63 -11 0 -15
-12 -15 -45 0 -33 -4 -45 -15 -45 -11 0 -15 -12 -15 -45 0 -39 -3 -45 -21 -45
-20 0 -21 -4 -15 -45 7 -41 5 -45 -13 -45 -18 0 -21 -6 -21 -45 0 -33 -4 -45
-15 -45 -10 0 -15 -11 -15 -35 0 -24 -5 -35 -15 -35 -10 0 -15 -11 -15 -35 0
-28 -4 -35 -20 -35 -16 0 -20 -7 -20 -30 0 -20 -5 -30 -15 -30 -10 0 -15 -11
-15 -35 0 -24 -5 -35 -15 -35 -10 0 -15 -11 -15 -35 0 -29 -4 -35 -21 -35 -19
0 -21 -4 -15 -30 5 -25 2 -30 -14 -30 -16 0 -20 -7 -20 -35 0 -24 -5 -35 -15
-35 -8 0 -15 -8 -15 -19 0 -10 -8 -21 -19 -24 -14 -3 -17 -11 -14 -31 4 -21 2
-26 -16 -26 -17 0 -21 -6 -21 -30 0 -20 -5 -30 -15 -30 -8 0 -15 -9 -15 -19 0
-10 -7 -21 -15 -25 -8 -3 -15 -16 -15 -30 0 -16 -7 -27 -20 -31 -14 -4 -20
-15 -20 -36 0 -19 -5 -29 -15 -29 -8 0 -15 -9 -15 -20 0 -11 -7 -20 -15 -20
-10 0 -15 -10 -15 -30 0 -20 -5 -30 -15 -30 -8 0 -15 -7 -15 -15 0 -8 -9 -15
-20 -15 -13 0 -20 -7 -20 -20 0 -13 -5 -18 -15 -14 -12 5 -15 -2 -15 -30 0
-25 -4 -36 -15 -36 -8 0 -15 -6 -15 -14 0 -7 -9 -16 -20 -19 -11 -3 -20 -12
-20 -21 0 -9 -7 -16 -15 -16 -10 0 -15 -10 -15 -30 0 -20 -5 -30 -15 -30 -8 0
-15 -7 -15 -16 0 -9 -9 -18 -20 -21 -11 -3 -20 -12 -20 -19 0 -8 -7 -14 -15
-14 -10 0 -15 -10 -15 -30 0 -20 -5 -30 -15 -30 -8 0 -15 -9 -15 -20 0 -11 -7
-20 -15 -20 -8 0 -15 -7 -15 -15 0 -8 -7 -15 -15 -15 -9 0 -18 -7 -21 -15 -4
-8 -12 -15 -20 -15 -8 0 -14 -9 -14 -20 0 -11 -7 -20 -15 -20 -8 0 -15 -7 -15
-15 0 -8 -6 -15 -13 -15 -8 0 -27 -16 -43 -35 -16 -19 -35 -33 -42 -30 -7 3
-11 1 -8 -4 7 -11 -18 -33 -27 -24 -6 6 -11 -21 -10 -54 0 -7 -12 -15 -28 -18
-16 -4 -29 -11 -29 -16 0 -5 -9 -9 -20 -9 -11 0 -20 -7 -20 -15 0 -17 -35 -55
-50 -55 -5 0 -10 -9 -10 -20 0 -11 -7 -20 -15 -20 -8 0 -15 -7 -15 -15 0 -8
-7 -15 -15 -15 -9 0 -18 -7 -21 -15 -4 -8 -12 -15 -20 -15 -8 0 -14 -9 -14
-20 0 -11 -7 -20 -15 -20 -8 0 -15 -7 -15 -15 0 -8 -7 -15 -15 -15 -9 0 -18
-7 -21 -15 -4 -8 -12 -15 -20 -15 -8 0 -14 -7 -14 -15 0 -10 -10 -15 -30 -15
-17 0 -30 -5 -30 -12 0 -16 -44 -58 -59 -58 -6 0 -11 -7 -11 -15 0 -10 -10
-15 -30 -15 -19 0 -30 -5 -30 -14 0 -8 -9 -18 -20 -21 -11 -3 -20 -13 -20 -21
0 -8 -7 -14 -15 -14 -8 0 -15 -7 -15 -15 0 -10 -10 -15 -26 -15 -27 0 -74 -36
-74 -57 0 -7 -7 -13 -15 -13 -8 0 -15 -7 -15 -15 0 -10 -10 -15 -30 -15 -20 0
-30 -5 -30 -15 0 -8 -9 -15 -19 -15 -11 0 -22 -8 -26 -19 -4 -13 -12 -17 -31
-13 -20 3 -26 0 -31 -17 -4 -15 -13 -21 -34 -21 -19 0 -29 -5 -29 -15 0 -8 -9
-15 -20 -15 -13 0 -20 -7 -20 -20 0 -16 -4 -19 -17 -12 -24 13 -43 4 -43 -19
0 -14 -7 -19 -25 -19 -16 0 -25 -6 -25 -15 0 -9 -9 -15 -25 -15 -16 0 -25 -6
-25 -15 0 -10 -11 -15 -35 -15 -19 0 -34 -3 -34 -7 5 -30 -2 -35 -43 -29 -24
3 -37 3 -30 0 27 -12 12 -34 -23 -34 -24 0 -35 -5 -35 -15 0 -10 -11 -15 -35
-15 -28 0 -35 -4 -35 -20 0 -16 -5 -19 -30 -13 -26 5 -30 3 -30 -16 0 -17 -6
-21 -35 -21 -24 0 -35 -5 -35 -15 0 -10 -10 -15 -30 -15 -16 0 -33 -7 -37 -14
-5 -9 -26 -16 -49 -17 -34 -2 -40 -6 -36 -21 4 -16 -2 -18 -47 -18 -39 0 -51
-4 -51 -15 0 -11 -11 -15 -40 -15 -29 0 -40 -4 -40 -15 0 -11 -12 -15 -50 -15
-43 0 -50 -3 -50 -20 0 -17 -7 -20 -45 -20 -33 0 -45 -4 -45 -15 0 -11 -12
-15 -50 -15 -38 0 -50 -4 -50 -15 0 -12 -13 -15 -56 -15 -48 0 -57 -3 -61 -21
-5 -18 -11 -20 -42 -15 -47 7 -81 -2 -74 -20 4 -11 -11 -14 -76 -14 -65 0 -81
-3 -81 -15 0 -12 -15 -15 -75 -15 -64 0 -76 -3 -85 -20 -10 -18 -17 -19 -101
-13 -52 3 -89 2 -88 -3 6 -32 -2 -34 -120 -34 -65 0 -134 -3 -152 -7 -33 -7
-33 -7 -9 -14 14 -4 -182 -7 -435 -8 -349 -1 -464 2 -473 11 -8 8 -65 14 -173
16 -155 4 -161 5 -155 25 5 19 2 20 -80 14 -91 -7 -114 -3 -114 19 0 11 -18
14 -75 14 -60 0 -75 3 -75 15 0 12 -15 15 -75 15 -57 0 -75 3 -75 14 0 20 -26
27 -71 20 -35 -6 -41 -4 -46 15 -5 18 -12 21 -64 21 -46 0 -59 3 -59 15 0 11
-12 15 -50 15 -38 0 -50 4 -50 15 0 11 -12 15 -45 15 -39 0 -45 3 -45 21 0 18
-5 21 -36 17 -29 -3 -38 -1 -42 14 -3 14 -14 18 -53 18 -37 0 -49 4 -49 15 0
11 -12 15 -45 15 -39 0 -45 3 -45 21 0 19 -4 21 -36 16 -30 -5 -37 -3 -41 13
-4 14 -14 20 -34 20 -17 0 -32 6 -35 15 -4 9 -19 15 -40 15 -24 0 -34 5 -34
15 0 10 -11 15 -35 15 -28 0 -35 4 -35 20 0 16 -7 20 -35 20 -24 0 -35 5 -35
15 0 11 -11 15 -36 15 -32 0 -36 3 -31 21 5 19 3 20 -29 15 -30 -6 -34 -4 -34
14 0 19 -13 25 -52 21 -10 -1 -18 4 -18 13 0 9 -9 16 -20 16 -11 0 -20 7 -20
15 0 10 -10 15 -30 15 -23 0 -30 4 -30 20 0 16 -7 20 -30 20 -20 0 -30 5 -30
15 0 8 -9 15 -20 15 -11 0 -20 7 -20 15 0 10 -10 15 -30 15 -16 0 -30 4 -30 9
0 6 -12 16 -28 24 -15 7 -26 19 -24 25 1 7 -10 12 -28 12 -20 0 -30 5 -30 15
0 8 -7 15 -15 15 -8 0 -15 8 -15 18 0 15 -6 18 -30 14 -22 -3 -30 0 -30 11 0
9 -9 19 -20 22 -11 3 -20 13 -20 21 0 8 -7 14 -15 14 -8 0 -14 6 -13 13 2 7
-10 13 -30 15 -18 2 -32 9 -32 16 0 8 -9 16 -20 19 -11 3 -20 12 -20 21 0 9
-7 16 -15 16 -8 0 -15 7 -15 15 0 10 -11 15 -35 15 -24 0 -35 5 -35 15 0 8 -7
15 -15 15 -8 0 -15 9 -15 20 0 11 -7 20 -15 20 -8 0 -15 7 -15 15 0 8 -7 15
-15 15 -8 0 -15 8 -15 19 0 15 -6 18 -35 14 -30 -3 -35 0 -35 17 0 11 -7 20
-15 20 -8 0 -15 7 -15 15 0 8 -9 15 -20 15 -11 0 -20 7 -20 15 0 8 -7 15 -15
15 -8 0 -15 7 -15 15 0 8 -7 15 -15 15 -8 0 -15 7 -15 16 0 9 -9 18 -20 21
-11 3 -20 12 -20 19 0 8 -7 14 -15 14 -8 0 -15 7 -15 15 0 8 -7 15 -15 15 -8
0 -15 5 -15 11 0 14 -47 59 -61 59 -5 0 -9 7 -9 15 0 8 -7 15 -15 15 -8 0 -15
7 -15 15 0 8 -6 15 -14 15 -8 0 -18 9 -21 20 -3 11 -13 20 -21 20 -8 0 -14 7
-14 15 0 8 -7 15 -15 15 -8 0 -15 7 -15 15 0 8 -7 15 -15 15 -8 0 -15 7 -15
16 0 9 -9 18 -20 21 -11 3 -20 12 -20 19 0 8 -7 14 -15 14 -9 0 -15 9 -15 24
0 14 -7 31 -15 40 -8 8 -15 19 -15 25 0 6 -7 11 -15 11 -8 0 -15 7 -15 15 0 8
-9 15 -20 15 -11 0 -20 7 -20 15 0 8 -7 15 -15 15 -10 0 -15 10 -15 29 0 16
-6 31 -15 35 -8 3 -15 12 -15 20 0 7 -9 16 -20 19 -11 3 -20 12 -20 21 0 9 -7
16 -15 16 -10 0 -15 10 -15 30 0 20 -5 30 -15 30 -8 0 -15 6 -15 14 0 7 -9 16
-20 19 -11 3 -20 12 -20 21 0 9 -7 16 -15 16 -10 0 -15 10 -15 30 0 20 -5 30
-15 30 -8 0 -15 9 -15 20 0 13 -7 20 -18 20 -15 0 -18 6 -14 30 4 25 1 30 -17
30 -14 0 -21 6 -21 20 0 11 -7 20 -15 20 -10 0 -15 10 -15 30 0 20 -5 30 -15
30 -10 0 -15 10 -15 29 0 20 -6 30 -20 34 -11 3 -20 12 -20 21 0 9 -7 16 -15
16 -10 0 -15 11 -15 35 0 24 -5 35 -15 35 -10 0 -15 10 -15 30 0 20 -5 30 -15
30 -8 0 -15 7 -15 16 0 9 -9 18 -20 21 -16 4 -20 14 -20 44 0 28 -4 39 -15 39
-10 0 -15 11 -15 35 0 24 -5 35 -15 35 -10 0 -15 10 -15 34 0 26 -4 33 -17 32
-14 -1 -18 7 -18 35 0 29 -3 35 -18 31 -14 -3 -17 2 -17 32 0 25 -4 36 -15 36
-10 0 -15 11 -15 35 0 29 -4 35 -21 35 -19 0 -20 4 -14 40 6 36 5 40 -14 40
-18 0 -21 6 -21 45 0 33 -4 45 -15 45 -11 0 -15 12 -15 50 0 42 -3 50 -19 50
-16 0 -18 6 -13 45 4 41 3 45 -17 45 -19 0 -21 6 -21 50 0 40 -3 48 -15 44
-12 -5 -15 4 -15 49 0 44 -3 56 -17 59 -14 2 -17 13 -14 56 2 47 1 52 -19 52
-21 0 -21 3 -16 82 3 46 3 75 0 66 -3 -10 -12 -18 -20 -18 -11 0 -14 17 -14
75 0 60 -3 75 -15 75 -12 0 -15 16 -15 84 0 76 -2 84 -20 89 -19 5 -20 10 -14
100 6 90 6 94 -15 100 -20 5 -21 10 -21 166 0 134 -3 163 -15 167 -23 9 -23
729 0 738 12 4 15 32 15 166 0 157 0 160 21 160 21 0 21 2 15 99 -7 95 -7 99
13 106 19 6 21 14 21 91 0 68 3 84 15 84 12 0 15 14 15 70 0 54 3 70 14 70 8
0 17 -8 20 -17 2 -10 2 19 -1 65 -5 79 -5 82 16 82 19 0 21 5 21 60 0 47 3 60
15 60 11 0 15 12 15 50 0 38 4 50 15 50 11 0 15 12 15 45 0 39 3 45 21 45 17
0 20 6 18 33 -3 52 0 67 16 67 11 0 15 11 15 40 0 29 4 40 15 40 11 0 15 12
15 45 0 38 3 45 20 45 18 0 20 4 14 41 -6 35 -4 41 15 46 16 4 21 13 21 39 0
24 5 34 15 34 10 0 15 10 15 34 0 25 5 35 17 38 12 2 18 13 18 33 0 23 4 30
18 28 16 -1 18 5 15 33 -3 28 -1 34 14 34 14 0 18 8 18 35 0 24 5 35 15 35 10
0 15 11 15 35 0 29 4 35 21 35 18 0 20 4 14 30 -6 26 -4 30 14 30 17 0 21 6
21 30 0 20 5 30 15 30 8 0 15 9 15 19 0 11 8 21 17 23 12 2 17 13 18 33 0 22
4 30 18 29 13 -1 17 6 17 32 0 24 5 34 15 34 9 0 15 9 15 21 0 16 5 20 18 17
15 -4 17 0 14 27 -3 26 0 33 17 38 15 3 21 13 21 31 0 16 6 26 15 26 8 0 15 9
15 20 0 11 7 20 15 20 8 0 15 9 15 20 0 13 7 20 20 20 17 0 19 4 14 26 -5 20
-2 26 15 31 11 3 21 12 21 19 0 8 7 14 15 14 8 0 15 8 15 19 0 10 8 21 19 24
14 3 17 11 14 31 -4 19 -1 26 11 26 9 0 19 7 22 15 4 8 12 15 20 15 8 0 14 10
14 21 0 16 5 20 18 17 15 -4 17 0 14 29 -3 19 0 33 6 33 15 0 62 45 62 59 0 6
7 11 15 11 8 0 15 7 15 15 0 8 7 15 15 15 9 0 18 7 21 15 4 8 12 15 20 15 8 0
14 7 14 15 0 8 7 15 15 15 8 0 15 9 15 21 0 11 5 17 10 14 6 -3 10 -1 10 5 0
6 5 8 10 5 6 -4 10 7 10 24 0 21 5 31 15 31 8 0 15 9 15 20 0 11 7 20 15 20 8
0 15 7 15 15 0 8 7 15 15 15 8 0 15 7 15 15 0 8 7 15 15 15 8 0 15 7 15 16 0
9 9 18 20 21 11 3 20 12 20 19 0 8 7 14 15 14 8 0 15 7 15 15 0 8 7 15 15 15
8 0 15 6 15 14 0 7 9 16 20 19 11 3 20 13 20 22 0 13 7 15 31 11 25 -4 32 -1
36 15 3 10 12 19 19 19 8 0 14 7 14 15 0 8 7 15 15 15 8 0 15 9 15 20 0 11 7
20 15 20 8 0 15 7 15 15 0 8 7 15 15 15 8 0 15 6 15 14 0 7 9 16 20 19 11 3
20 12 20 21 0 9 7 16 15 16 8 0 15 7 15 15 0 10 10 15 30 15 20 0 30 5 30 15
0 8 9 15 20 15 13 0 20 7 20 20 0 11 7 20 15 20 8 0 15 7 15 16 0 13 7 15 34
11 30 -5 33 -3 29 14 -4 14 0 19 16 19 11 0 21 4 21 10 0 14 50 61 63 59 26
-3 37 2 37 16 0 8 7 15 15 15 8 0 15 7 15 15 0 8 9 15 20 15 11 0 20 6 20 14
0 7 14 16 30 20 18 3 30 12 30 21 0 10 10 15 30 15 20 0 30 5 30 15 0 8 9 15
20 15 11 0 20 7 20 15 0 10 11 15 35 15 29 0 35 4 35 21 0 19 4 21 30 16 16
-4 29 -3 29 1 -4 22 3 32 21 32 11 0 20 7 20 15 0 10 10 15 30 15 24 0 30 4
30 21 0 18 5 20 34 16 29 -4 33 -2 29 14 -5 16 0 19 31 19 25 0 36 4 36 15 0
10 11 15 35 15 29 0 35 4 35 21 0 18 4 20 30 14 26 -6 30 -4 30 14 0 17 6 21
35 21 24 0 35 5 35 15 0 10 11 15 35 15 24 0 35 5 35 15 0 10 10 15 29 15 21
0 32 6 36 20 5 16 15 20 51 20 32 0 44 4 44 15 0 11 12 15 45 15 33 0 45 4 45
15 0 11 12 15 44 15 36 0 45 4 49 21 5 19 11 21 46 15 37 -6 41 -4 41 14 0 17
7 20 45 20 33 0 45 4 45 15 0 11 12 15 51 15 42 0 52 3 56 20 5 17 13 20 61
17 45 -1 57 1 57 13 0 11 15 16 63 18 46 2 62 7 62 17 0 12 16 15 75 15 60 0
75 3 75 15 0 17 10 19 103 15 62 -2 67 -1 67 19 0 20 5 21 113 22 61 1 115 1
119 0 4 0 5 6 2 14 -5 13 15 15 145 15 125 0 151 2 151 14 0 11 15 16 53 19
97 6 523 7 600 1z"/>
<path d="M1880 5401 l0 -1648 163 1 162 1 3 758 2 757 745 0 745 0 0 145 c0
142 0 145 -22 150 -13 3 -348 4 -746 3 l-722 -3 0 595 0 595 745 -3 745 -2 0
150 0 150 -910 0 -910 -1 0 -1648z"/>
<path d="M6872 6788 l3 -263 163 -3 162 -2 0 265 0 265 -165 0 -165 0 2 -262z"/>
<path d="M7897 7044 c-4 -4 -7 -124 -7 -266 l0 -258 165 0 165 0 -2 263 -3
262 -156 3 c-85 1 -158 -1 -162 -4z"/>
<path d="M4000 5456 c0 -666 2 -766 15 -780 11 -11 15 -39 15 -110 0 -86 2
-96 21 -106 17 -10 19 -17 13 -56 -3 -25 -2 -44 2 -43 26 5 34 -4 34 -36 0
-24 5 -35 15 -35 10 0 15 -10 15 -34 0 -25 5 -35 20 -39 11 -3 20 -12 20 -21
0 -9 7 -16 15 -16 10 0 15 -10 15 -30 0 -20 5 -30 15 -30 8 0 15 -9 15 -20 0
-11 7 -20 15 -20 9 0 18 -7 21 -15 4 -8 12 -15 20 -15 8 0 14 -7 14 -15 0 -8
7 -15 15 -15 8 0 15 -9 15 -20 0 -11 7 -20 15 -20 8 0 15 -7 15 -15 0 -8 9
-15 20 -15 11 0 20 -7 20 -15 0 -8 7 -15 15 -15 8 0 15 -9 15 -20 0 -15 7 -20
29 -20 16 0 31 -6 35 -15 3 -9 18 -15 36 -15 20 0 30 -5 30 -15 0 -10 11 -15
35 -15 29 0 35 -4 35 -21 0 -16 6 -20 28 -19 44 3 52 1 52 -15 0 -12 13 -15
60 -15 47 0 60 -3 60 -15 0 -13 32 -15 225 -15 193 0 225 2 225 15 0 12 13 15
60 15 47 0 60 3 60 15 0 11 11 15 36 15 28 0 37 5 41 20 5 17 11 19 39 14 30
-5 32 -4 27 15 -4 17 -1 21 21 21 16 0 26 5 26 15 0 9 9 15 25 15 18 0 25 5
25 20 0 13 7 20 20 20 11 0 20 7 20 15 0 8 7 15 15 15 8 0 15 7 15 15 0 8 7
15 15 15 8 0 15 9 15 20 0 11 7 20 15 20 9 0 18 7 21 15 4 8 12 15 20 15 8 0
14 6 14 14 0 8 7 16 15 20 9 3 15 18 15 36 0 16 4 30 9 30 5 0 6 -14 2 -30 -3
-17 -4 -105 -1 -198 l5 -167 143 -3 142 -3 0 1236 0 1235 -145 0 -145 0 0
-735 c0 -627 -2 -735 -14 -735 -8 0 -17 6 -20 13 -3 6 -4 -32 -2 -87 3 -90 2
-99 -15 -103 -15 -4 -19 -15 -19 -54 0 -37 -4 -49 -15 -49 -10 0 -15 -11 -15
-35 0 -24 -5 -35 -15 -35 -8 0 -15 -7 -15 -15 0 -8 -9 -15 -20 -15 -15 0 -20
-7 -20 -29 0 -16 -6 -31 -15 -35 -8 -3 -15 -12 -15 -21 0 -8 -7 -15 -15 -15
-8 0 -15 -7 -15 -15 0 -8 -7 -15 -15 -15 -8 0 -15 -6 -15 -14 0 -7 -9 -16 -20
-19 -11 -3 -20 -12 -20 -21 0 -9 -7 -16 -15 -16 -8 0 -15 -7 -15 -15 0 -10
-10 -15 -30 -15 -20 0 -30 -5 -30 -15 0 -9 -9 -15 -25 -15 -16 0 -25 -6 -25
-15 0 -11 -11 -15 -41 -15 -32 0 -42 -4 -46 -19 -5 -20 -25 -22 -223 -22 -176
0 -235 6 -238 24 -3 13 -14 17 -53 17 -37 0 -49 4 -49 15 0 10 -11 15 -35 15
-24 0 -35 5 -35 15 0 8 -9 15 -20 15 -13 0 -20 7 -20 20 0 11 -7 20 -15 20 -8
0 -15 6 -15 13 0 7 -12 14 -27 15 -15 1 -31 9 -36 17 -4 8 -14 15 -22 15 -8 0
-15 13 -17 33 -2 19 -8 31 -15 29 -7 -1 -13 5 -13 13 0 8 -7 15 -15 15 -11 0
-15 11 -15 35 0 29 -4 35 -17 33 -12 -2 -19 4 -21 20 -2 12 -10 22 -18 22 -10
0 -14 13 -14 45 0 33 -4 45 -15 45 -12 0 -15 14 -15 69 0 57 -3 70 -17 73 -15
3 -16 64 -14 776 l2 772 -165 0 -166 0 0 -764z"/>
<path d="M6870 4960 c0 -1113 -2 -1260 -15 -1260 -12 0 -15 -14 -15 -65 0 -58
-2 -65 -20 -65 -18 0 -20 -4 -14 -41 6 -35 4 -41 -15 -46 -12 -3 -21 -13 -21
-24 0 -11 -7 -19 -15 -19 -10 0 -15 -10 -15 -30 0 -20 -5 -30 -15 -30 -8 0
-15 -7 -15 -15 0 -8 -6 -15 -14 -15 -8 0 -16 -7 -20 -15 -3 -8 -12 -15 -21
-15 -8 0 -15 -6 -15 -14 0 -8 -13 -17 -30 -21 -16 -4 -30 -13 -30 -21 0 -10
-13 -14 -45 -14 -31 0 -45 -4 -45 -14 0 -10 -23 -15 -90 -18 -133 -8 -270 2
-270 18 0 9 -12 14 -36 14 -31 0 -36 3 -31 19 4 16 0 18 -25 14 -24 -4 -31 0
-35 16 -4 15 -13 21 -34 21 -19 0 -29 5 -29 15 0 8 -7 15 -15 15 -8 0 -15 7
-15 15 0 8 -7 15 -15 15 -8 0 -15 6 -15 14 0 8 -16 16 -41 20 -43 7 -63 1 -53
-15 3 -6 -3 -13 -15 -16 -12 -3 -21 -12 -21 -19 0 -8 -7 -14 -15 -14 -8 0 -15
-7 -15 -15 0 -10 -11 -15 -35 -15 -27 0 -33 -3 -28 -16 4 -10 -1 -17 -16 -21
-17 -4 -21 -13 -21 -49 0 -32 4 -44 15 -44 8 0 15 -7 15 -15 0 -8 7 -15 16
-15 9 0 18 -9 21 -20 3 -11 12 -20 19 -20 8 0 14 -7 14 -15 0 -8 7 -15 15 -15
8 0 15 -7 15 -15 0 -10 10 -15 31 -15 26 0 31 -3 26 -20 -4 -17 -1 -19 19 -14
20 5 24 2 24 -15 0 -17 6 -21 35 -21 24 0 35 -5 35 -15 0 -10 11 -15 35 -15
29 0 35 -4 35 -21 0 -20 4 -21 49 -15 35 5 51 3 60 -7 6 -8 8 -17 4 -20 -3 -4
91 -7 209 -7 204 0 216 1 221 19 4 16 11 19 46 14 37 -5 43 -3 48 16 4 17 13
21 44 21 26 0 42 5 45 15 4 8 18 15 31 15 14 0 31 6 37 14 6 7 28 16 50 19 32
5 39 3 43 -13 4 -14 14 -20 34 -20 19 0 29 -5 29 -15 0 -11 11 -15 40 -15 34
0 40 -3 40 -21 0 -19 4 -21 39 -15 45 7 71 0 71 -20 0 -12 37 -14 209 -14 196
0 209 1 214 19 4 16 11 18 49 14 40 -5 46 -3 51 16 4 17 13 21 46 21 30 0 41
4 41 15 0 10 11 15 35 15 23 0 35 5 35 13 0 8 11 19 25 25 14 6 25 16 25 22 0
5 7 10 15 10 9 0 18 7 21 15 6 14 8 13 20 -2 13 -17 14 -17 8 0 -4 11 -1 17
10 17 9 0 16 7 16 15 0 9 8 19 18 22 9 4 21 13 25 20 5 7 12 11 18 8 5 -4 9 9
9 28 0 22 6 37 15 41 8 3 15 12 15 21 0 8 9 15 20 15 16 0 20 7 20 35 0 24 5
35 15 35 11 0 15 12 15 46 0 42 2 46 21 41 20 -5 21 -3 15 33 -7 45 0 70 20
70 11 0 14 20 14 95 0 78 3 95 15 95 13 0 15 146 15 1255 l0 1255 -165 0 -166
0 1 -1257 c1 -1136 0 -1258 -14 -1261 -13 -3 -16 -17 -16 -68 0 -50 -3 -64
-15 -64 -11 0 -15 -12 -15 -45 0 -32 -4 -45 -14 -45 -8 0 -18 -9 -21 -21 -4
-12 -12 -18 -21 -15 -7 3 -13 2 -13 -2 5 -31 -3 -62 -16 -62 -8 0 -15 -7 -15
-16 0 -11 -6 -15 -19 -11 -14 3 -17 0 -14 -14 4 -13 0 -19 -11 -19 -9 0 -19
-6 -22 -14 -3 -8 -19 -18 -35 -21 -16 -4 -29 -13 -29 -21 0 -10 -12 -14 -39
-14 -23 0 -41 -5 -44 -13 -11 -28 -365 -28 -359 1 1 8 -11 12 -38 12 -32 0
-40 4 -40 18 0 10 -5 23 -11 29 -13 13 -4 33 17 33 10 0 14 13 14 46 0 37 3
45 15 40 12 -4 15 5 15 50 0 50 2 56 19 51 16 -4 20 2 23 35 2 22 0 42 -4 44
-4 3 -8 28 -8 56 0 41 3 51 20 55 20 5 20 14 20 1259 l0 1254 -165 0 -165 0 0
-1260z"/>
<path d="M8713 4203 l-23 -4 0 -219 c0 -217 0 -218 23 -224 12 -3 83 -6 158
-6 116 0 138 2 143 16 3 9 6 105 6 214 0 109 -3 205 -6 214 -5 14 -27 16 -143
15 -75 -1 -146 -4 -158 -6z"/>
</g>
</svg>
